<svg id="Layer_1" data-name="Layer 1" xmlns="http://www.w3.org/2000/svg" xmlns:xlink="http://www.w3.org/1999/xlink" viewBox="0 0 50 50"><defs><style>.cls-1{fill:#fff;}.cls-2{fill:url(#linear-gradient);}</style><linearGradient id="linear-gradient" x1="25.01" y1="35.16" x2="25.08" y2="8.11" gradientUnits="userSpaceOnUse"><stop offset="0" stop-color="#29abe2"/><stop offset="0.24" stop-color="#5f84ae"/><stop offset="0.61" stop-color="#ab4c64"/><stop offset="0.87" stop-color="#db2936"/><stop offset="1" stop-color="#ed1c24"/></linearGradient></defs><title>temp-1</title><path class="cls-1" d="M25,47a10,10,0,0,1-6-18V9A6,6,0,1,1,31,9V29a10,10,0,0,1-6,18Z"/><path d="M25,4a5,5,0,0,1,5,5V29.52a9,9,0,1,1-10,0V9a5,5,0,0,1,5-5m0-2a7,7,0,0,0-7,7V28.52a11,11,0,1,0,14,0V9a7,7,0,0,0-7-7Z"/><path class="cls-2" d="M32,37a7,7,0,1,1-10-6.32V26h6v4.68A7,7,0,0,1,32,37Z"/></svg>