<svg xmlns="http://www.w3.org/2000/svg" viewBox="0 0 912 730"><defs><style>.cls-1{fill:#fff;}.cls-2{fill:#b3b3b3;}.cls-3{fill:gray;}</style></defs><title>not-found</title><g id="Layer_1" data-name="Layer 1"><path class="cls-1" d="M456.4,365l-.41.41-.41-.41a.31.31,0,0,1,0-.45.31.31,0,0,1,.38.06.29.29,0,0,1,.42,0A.28.28,0,0,1,456.4,365Z"/><rect class="cls-2" x="-29.79" y="-25.57" width="966" height="787"/></g><g id="Layer_2" data-name="Layer 2"><path class="cls-3" d="M403.07,480.57l-1.55-20.06c-4.63-41.66,9.26-87.18,47.83-133.46,34.72-40.89,54-71,54-105.69,0-39.35-24.69-65.58-73.29-66.35-27.77,0-58.63,9.26-77.92,23.92l-18.51-48.6C359.09,111.81,403.07,99.47,444,99.47c88.71,0,128.83,54.77,128.83,113.4,0,52.46-29.32,90.26-66.35,134.23-33.94,40.12-46.28,74.06-44,113.41l.77,20.06Zm-17,108c0-28.54,19.28-48.6,46.28-48.6S477.9,560,477.9,588.57c0,27-17.74,47.83-46.29,47.83C404.61,636.4,386.1,615.57,386.1,588.57Z"/></g></svg>